<svg width="42" height="42" viewBox="0 0 42 42" fill="none" xmlns="http://www.w3.org/2000/svg">
<path d="M0 20.9998C-3.63102e-07 25.1532 1.23163 29.2133 3.53914 32.6667C5.84665 36.1202 9.1264 38.8118 12.9636 40.4012C16.8009 41.9907 21.0233 42.4065 25.0969 41.5962C29.1705 40.786 32.9123 38.7859 35.8492 35.849C38.7861 32.9121 40.7862 29.1703 41.5965 25.0967C42.4068 21.0231 41.9909 16.8007 40.4015 12.9634C38.812 9.12616 36.1204 5.84641 32.667 3.53889C29.2135 1.23138 25.1534 -0.000243827 21 -0.000244141L21 20.9998L0 20.9998Z" fill="#1ECE7A"/>
<path d="M31.5625 20.9997C31.5625 18.1984 30.4496 15.5118 28.4688 13.5309C26.4879 11.5501 23.8013 10.4373 21 10.4373C18.1987 10.4373 15.5121 11.5501 13.5312 13.5309C11.5504 15.5118 10.4376 18.1984 10.4376 20.9997L21 20.9997H31.5625Z" fill="white"/>
</svg>
